HIERARCHY
ROOT Hips
{
	OFFSET -3.958830 18.904000 13.208200
	CHANNELS 6 Xposition Yposition Zposition Zrotation Yrotation Xrotation 
	JOINT LHipJoint
	{
		OFFSET 0.000000 0.000000 0.000000
		CHANNELS 3 Zrotation Yrotation Xrotation
		JOINT LeftUpLeg
		{
			OFFSET 1.800000 -1.400000 0.085000
			CHANNELS 3 Zrotation Yrotation Xrotation
			JOINT LeftLeg
			{
				OFFSET 2.215000 -6.000000 0.000000
				CHANNELS 3 Zrotation Yrotation Xrotation
				JOINT LeftFoot
				{
					OFFSET 2.500000 -6.900000 0.000000
					CHANNELS 3 Zrotation Yrotation Xrotation
					JOINT LeftToeBase
					{
						OFFSET 0.200000 -0.500000 1.950000
						CHANNELS 3 Zrotation Yrotation Xrotation
						End Site
						{
							OFFSET 0.000000 0.000000 0.000000
						}
					}
				}
			}
		}
	}
	JOINT RHipJoint
	{
		OFFSET 0.000000 0.000000 0.000000
		CHANNELS 3 Zrotation Yrotation Xrotation
		JOINT RightUpLeg
		{
			OFFSET -1.800000 -1.400000 0.085000
			CHANNELS 3 Zrotation Yrotation Xrotation
			JOINT RightLeg
			{
				OFFSET -2.215000 -6.000000 0.000000
				CHANNELS 3 Zrotation Yrotation Xrotation
				JOINT RightFoot
				{
					OFFSET -2.500000 -6.900000 0.000000
					CHANNELS 3 Zrotation Yrotation Xrotation
					JOINT RightToeBase
					{
						OFFSET -0.200000 -0.500000 1.950000
						CHANNELS 3 Zrotation Yrotation Xrotation
						End Site
						{
							OFFSET 0.000000 0.000000 0.000000
						}
					}
				}
			}
		}
	}
	JOINT LowerBack
	{
		OFFSET 0.000000 0.000000 0.000000
		CHANNELS 3 Zrotation Yrotation Xrotation
		JOINT Spine
		{
			OFFSET -0.087000 1.940000 -0.288900
			CHANNELS 3 Zrotation Yrotation Xrotation
			JOINT Spine1
			{
				OFFSET 0.000000 1.950000 0.060000
				CHANNELS 3 Zrotation Yrotation Xrotation
				JOINT Neck
				{
					OFFSET 0.000000 0.000000 0.000000
					CHANNELS 3 Zrotation Yrotation Xrotation
					JOINT Neck1
					{
						OFFSET 0.000000 1.600000 0.340000
						CHANNELS 3 Zrotation Yrotation Xrotation
						JOINT Head
						{
							OFFSET 0.000000 1.667000 -0.240000
							CHANNELS 3 Zrotation Yrotation Xrotation
							End Site
							{
								OFFSET 0.000000 0.000000 0.000000
							}
						}
					}
				}
				JOINT LeftShoulder
				{
					OFFSET 0.000000 0.000000 0.000000
					CHANNELS 3 Zrotation Yrotation Xrotation
					JOINT LeftArm
					{
						OFFSET 2.700000 1.550000 -0.730000
						CHANNELS 3 Zrotation Yrotation Xrotation
						JOINT LeftForeArm
						{
							OFFSET 5.450000 0.000000 0.000000
							CHANNELS 3 Zrotation Yrotation Xrotation
							JOINT LeftHand
							{
								OFFSET 3.450000 0.000000 0.000000
								CHANNELS 3 Zrotation Yrotation Xrotation
								JOINT LeftHandIndex1
								{
									OFFSET 0.750000 0.000000 0.000000
									CHANNELS 3 Zrotation Yrotation Xrotation
									End Site
									{
										OFFSET 0.000000 0.000000 0.000000
									}
								}
							}
						}
					}
				}
				JOINT RightShoulder
				{
					OFFSET 0.000000 0.000000 0.000000
					CHANNELS 3 Zrotation Yrotation Xrotation
					JOINT RightArm
					{
						OFFSET -2.700000 1.550000 -0.730000
						CHANNELS 3 Zrotation Yrotation Xrotation
						JOINT RightForeArm
						{
							OFFSET -5.450000 0.000000 0.000000
							CHANNELS 3 Zrotation Yrotation Xrotation
							JOINT RightHand
							{
								OFFSET -3.450000 0.000000 0.000000
								CHANNELS 3 Zrotation Yrotation Xrotation
								JOINT RightHandIndex1
								{
									OFFSET -0.750000 0.000000 0.000000
									CHANNELS 3 Zrotation Yrotation Xrotation
									End Site
									{
										OFFSET 0.000000 0.000000 0.000000
									}
								}
							}
						}
					}
				}
			}
		}
	}
}
MOTION
Frames: 13
Frame Time: 0.016667
1.023870 17.181390 -0.342680 -9.471575 -9.671525 -11.972053 -15.025553 12.767889 2.542672 4.897274 -0.654942 8.092895 -7.195611 6.795081 9.836815 -0.410491 5.875496 2.901342 0.309300 -0.030750 0.248250 18.724800 -8.994865 4.505877 6.998830 7.910490 -52.335516 7.014984 -5.141999 20.697674 0.125864 -2.359597 3.677324 0.177630 0.544280 0.259340 -4.500168 -2.646131 -7.775192 26.055871 -16.581105 28.467278 -6.762886 -12.372663 11.243647 -2.962597 -2.235543 -8.184917 -6.517152 4.254332 27.289919 -11.133120 9.726830 -7.419430 0.098239 -11.022855 -0.804782 7.814091 -28.618540 -9.986566 73.466903 -16.261664 -16.684293 -4.481509 2.815224 0.395930 0.555800 -0.322220 0.182370 6.094554 4.005538 6.134430 48.555106 -2.846905 -16.434346 2.426285 76.494859 -3.701430 1.176265 -1.995958 -0.397200 0.328360 0.138030 -0.365730 
1.008660 17.178460 -0.334720 -8.733739 -9.959338 -12.043713 -15.029808 12.849973 2.574392 4.485489 -0.556121 7.681472 -7.505470 6.952326 10.744866 -0.402096 5.897051 2.885451 0.314360 -0.023450 0.249470 18.704972 -9.059120 4.417966 7.157781 7.754500 -50.749293 5.799944 -5.128789 22.166140 0.104052 -2.473203 3.641414 0.177030 0.533830 0.250990 -4.454008 -2.759414 -7.758812 24.827213 -15.872437 28.447046 -6.716701 -12.045599 11.335481 -2.935958 -2.238141 -8.203097 -6.689616 4.187271 27.719507 -10.869850 9.613350 -7.473910 -0.042585 -10.885708 -0.814365 6.734769 -29.231551 -9.649894 73.803314 -17.308731 -17.500993 -4.456350 2.801676 0.401500 0.543190 -0.317650 0.181710 6.096863 4.009049 6.173672 48.628444 -2.915343 -16.007311 6.709634 75.306509 -0.683443 1.202722 -2.029929 -0.393580 0.328810 0.134620 -0.365720 
0.991560 17.177500 -0.327910 -7.844964 -10.082306 -12.274410 -15.040629 12.964703 2.622050 3.922847 -0.452286 7.301270 -7.691655 7.104475 11.806610 -0.402472 5.934507 2.863666 0.324060 -0.019410 0.258560 18.674312 -9.135522 4.295401 7.208483 7.398029 -48.980286 4.429025 -5.088146 23.708484 0.073870 -2.611597 3.596902 0.176510 0.520920 0.246310 -4.377210 -2.936534 -7.741301 23.228173 -15.154016 28.604028 -6.477658 -11.764078 11.420350 -2.946808 -2.250262 -8.240049 -6.916688 4.174554 28.178280 -10.703890 9.522740 -7.771870 -0.273978 -10.891776 -0.808852 5.729937 -29.719063 -9.389054 74.003368 -18.252023 -18.248508 -4.433749 2.781451 0.421240 0.528490 -0.309040 0.180900 6.274144 4.165315 6.225739 48.579004 -2.964224 -15.689893 10.422501 73.969626 1.804218 1.220029 -2.044507 -0.394950 0.331600 0.131760 -0.372860 
0.974380 17.176360 -0.319780 -7.077449 -10.130850 -12.431340 -15.050726 13.079688 2.668003 3.447188 -0.420515 6.858883 -7.859462 7.257396 12.900257 -0.398720 5.983562 2.840086 0.326810 -0.026600 0.267980 18.643859 -9.216722 4.165378 7.305856 7.016765 -47.144612 3.091405 -5.007424 25.069861 0.042332 -2.739340 3.553268 0.169380 0.510460 0.244250 -4.301235 -3.108938 -7.720590 21.817612 -14.567250 28.523690 -6.295371 -11.544079 11.536970 -2.913706 -2.305884 -8.331276 -7.248633 4.212467 28.769128 -10.550670 9.432520 -8.024970 -0.627368 -11.062701 -0.753789 4.837274 -29.951330 -9.177689 74.136001 -19.085248 -18.885583 -4.414356 2.757033 0.443180 0.512190 -0.297610 0.178590 6.491788 4.515549 6.351507 48.487310 -2.995663 -15.445474 13.605001 72.409150 3.799265 1.241759 -2.039323 -0.397960 0.336880 0.132390 -0.379290 
0.956930 17.172110 -0.310210 -6.435613 -10.091426 -12.507048 -15.061635 13.194282 2.708853 3.055331 -0.463540 6.303615 -7.998472 7.407067 14.065279 -0.389825 6.025012 2.817396 0.336580 -0.023170 0.279370 18.612854 -9.293986 4.038444 7.447437 6.631977 -45.340932 1.883160 -4.874799 26.076519 0.014230 -2.834491 3.521736 0.166150 0.494490 0.238760 -4.223375 -3.282549 -7.700101 20.527302 -14.030292 28.274455 -6.062706 -11.329092 11.627052 -2.891585 -2.339469 -8.430238 -7.556410 4.259744 29.405671 -10.224520 9.317050 -8.201260 -0.990970 -11.227543 -0.704971 3.958578 -30.227451 -8.928087 74.161662 -20.076258 -19.567649 -4.386096 2.739499 0.460550 0.491830 -0.285940 0.178130 6.746049 4.853992 6.493825 48.371661 -3.136103 -15.225796 16.479668 70.762489 5.457924 1.265984 -2.034523 -0.395580 0.337240 0.125920 -0.383500 
0.942120 17.165560 -0.300250 -5.924324 -10.034221 -12.469670 -15.075130 13.303280 2.742322 2.727174 -0.560728 5.626852 -8.092057 7.540977 15.249011 -0.392909 6.069022 2.793207 0.336510 -0.027540 0.277280 18.581424 -9.355437 3.929165 7.603953 6.294332 -43.734075 0.827994 -4.733652 26.828595 -0.004465 -2.913275 3.501361 0.161840 0.488860 0.230180 -4.142581 -3.458393 -7.683481 19.416570 -13.527401 27.902601 -5.736967 -11.082493 11.677695 -2.866810 -2.356738 -8.543036 -7.817866 4.306569 30.001582 -9.881380 9.180490 -8.270930 -1.240351 -11.352766 -0.665883 3.096394 -30.506578 -8.630147 73.965475 -20.972767 -20.119788 -4.366261 2.719117 0.477600 0.478810 -0.283150 0.176470 6.887130 5.168125 6.657830 48.209077 -3.372068 -15.002395 19.221666 68.980907 6.896376 1.282132 -2.020440 -0.400890 0.343130 0.129500 -0.387610 
0.928030 17.154960 -0.290060 -5.648325 -9.929908 -12.236082 -15.077508 13.373057 2.750013 2.563681 -0.755830 4.777145 -8.159790 7.655381 16.476469 -0.401494 6.105243 2.772059 0.343050 -0.020950 0.277180 18.566252 -9.411382 3.851014 7.889504 6.067742 -42.431424 0.011199 -4.600034 27.284754 -0.020650 -2.961907 3.488998 0.166860 0.484140 0.221190 -4.106896 -3.552182 -7.655942 18.856255 -13.266809 27.267509 -5.682081 -10.947848 11.599167 -2.847571 -2.437972 -8.559826 -8.119443 4.419346 30.395961 -9.484520 9.036910 -8.373970 -1.480911 -11.242211 -0.709246 2.429378 -30.854693 -8.252249 73.502032 -21.883999 -20.507678 -4.343106 2.701115 0.490500 0.467000 -0.279200 0.179610 7.047105 5.211966 6.719735 48.059344 -3.575272 -14.579236 22.186684 66.972595 8.350552 1.301471 -2.008297 -0.405980 0.351310 0.127180 -0.389140 
0.913310 17.141970 -0.281650 -5.429066 -9.909257 -11.951956 -15.077392 13.424508 2.748549 2.347571 -0.979947 3.862655 -8.068870 7.723231 17.766189 -0.399996 6.127007 2.755627 0.353930 -0.009460 0.281170 18.556319 -9.454736 3.801666 8.275841 5.935638 -41.319293 -0.577072 -4.446029 27.356071 -0.028493 -2.963863 3.492316 0.170630 0.478910 0.218970 -4.084573 -3.614412 -7.632165 18.427087 -13.032188 26.645286 -5.629596 -10.797814 11.413641 -2.859583 -2.497094 -8.529615 -8.325677 4.487645 30.645388 -9.105860 8.906310 -8.291540 -1.824618 -11.106416 -0.802836 2.187967 -31.158269 -7.928815 72.753178 -22.775391 -20.685300 -4.322932 2.697121 0.490850 0.458790 -0.275540 0.184460 7.381846 5.213881 6.754765 47.762286 -3.845606 -14.133414 24.769827 64.914939 9.440363 1.326349 -1.999860 -0.400100 0.349530 0.119260 -0.385980 
0.897970 17.131060 -0.278160 -5.212444 -10.059410 -11.782831 -15.079012 13.465160 2.750212 2.109614 -1.221948 3.016702 -7.928183 7.780127 19.095605 -0.394444 6.162560 2.735000 0.361110 -0.001510 0.282320 18.545218 -9.485401 3.774506 8.680500 5.871251 -40.321474 -0.867971 -4.315141 27.127359 -0.030727 -2.933805 3.507828 0.171490 0.475400 0.220690 -4.058081 -3.663059 -7.625052 17.906194 -12.739909 26.321334 -5.490882 -10.570691 11.253077 -2.873863 -2.432284 -8.531604 -8.276543 4.516156 30.881673 -8.843880 8.887220 -8.201520 -2.113770 -11.169416 -0.884227 2.423837 -31.267497 -7.830012 71.861866 -23.356632 -20.604812 -4.310236 2.698083 0.491520 0.454300 -0.271260 0.189350 7.673629 5.344884 6.832859 47.660790 -4.082203 -13.843924 26.699002 62.879363 10.010110 1.348213 -1.985066 -0.394100 0.345000 0.112960 -0.383070 
0.883190 17.122000 -0.278970 -4.934390 -10.416230 -11.762976 -15.083710 13.492838 2.763469 1.869195 -1.480339 2.286965 -7.923379 7.880134 20.402673 -0.386249 6.228399 2.701622 0.363410 0.001290 0.283390 18.532299 -9.499012 3.764082 9.064087 5.862949 -39.449734 -0.929284 -4.190227 26.617879 -0.027484 -2.863140 3.535402 0.170670 0.467440 0.219050 -4.024545 -3.708273 -7.638108 17.227839 -12.390078 26.297492 -5.246171 -10.282378 11.140741 -2.908553 -2.348900 -8.578454 -8.205577 4.581194 31.220819 -8.687400 8.948770 -8.292900 -2.344538 -11.362607 -0.937577 2.967635 -31.124436 -7.902029 70.884744 -23.681428 -20.335860 -4.297491 2.695477 0.500200 0.445420 -0.263700 0.189890 7.954428 5.632279 6.956882 47.684894 -4.239694 -13.701730 28.145296 61.004071 10.243451 1.369532 -1.959065 -0.393400 0.343260 0.110490 -0.384250 
0.871370 17.116280 -0.282060 -4.814745 -10.864949 -11.762653 -15.086177 13.502512 2.767826 1.796971 -1.803269 1.557247 -7.960827 7.995118 21.713981 -0.371458 6.311139 2.662822 0.368300 0.002240 0.295660 18.524298 -9.496423 3.777599 9.533895 5.944330 -38.776351 -0.789517 -4.080977 25.835993 -0.020447 -2.756132 3.573864 0.165430 0.454800 0.222110 -4.003252 -3.729871 -7.656661 16.815502 -12.167716 26.388045 -5.052887 -10.036969 11.035470 -2.900271 -2.290176 -8.637567 -8.152262 4.635610 31.509695 -8.790400 9.121570 -8.411880 -2.552178 -11.599794 -0.962625 3.640510 -30.852647 -8.083507 70.065503 -23.697401 -19.953409 -4.288508 2.698313 0.508450 0.436700 -0.253240 0.187440 8.134876 5.948514 7.082620 47.801732 -4.353091 -13.613354 29.399110 59.168852 10.322708 1.393564 -1.934895 -0.388250 0.335570 0.104700 -0.388300 
0.860630 17.111620 -0.287890 -4.699568 -11.436975 -11.796566 -15.092455 13.494851 2.776522 1.824479 -2.185028 0.805850 -8.225118 8.195025 23.074003 -0.345478 6.435867 2.607325 0.364340 -0.004950 0.303460 18.515976 -9.467478 3.813850 10.076923 6.117970 -38.367942 -0.635215 -3.936767 24.862121 -0.005847 -2.619802 3.621590 0.155040 0.441330 0.227390 -3.977514 -3.752430 -7.692634 16.399815 -11.954858 26.616005 -4.836825 -9.782920 10.944452 -2.845555 -2.194819 -8.729883 -8.019212 4.700702 31.827715 -9.123200 9.456300 -8.455970 -2.642570 -11.839337 -0.935361 4.334844 -30.389065 -8.322549 69.507927 -23.505958 -19.558422 -4.286567 2.704093 0.514240 0.431290 -0.243230 0.180620 8.113092 6.264003 7.205732 48.143050 -4.346492 -13.560339 30.539447 57.448209 10.321276 1.418605 -1.911055 -0.382870 0.323110 0.103520 -0.393520 
0.852730 17.110610 -0.296970 -4.773575 -11.892651 -11.875956 -15.096240 13.467314 2.778400 2.158566 -2.671154 0.053000 -8.694259 8.481670 24.476727 -0.315759 6.609911 2.535284 0.357750 -0.014570 0.307720 18.513210 -9.422861 3.863976 10.626873 6.353706 -38.253643 -0.361250 -3.843522 23.978207 0.008918 -2.496900 3.665669 0.145390 0.431380 0.229280 -3.966765 -3.757970 -7.731959 16.257191 -11.935301 26.992242 -4.639670 -9.646530 10.867373 -2.801100 -2.153200 -8.855241 -7.951411 4.814412 32.042149 -9.415560 9.786160 -8.514350 -2.689743 -12.152097 -0.867922 5.136371 -29.745026 -8.662554 69.193640 -23.130306 -19.166764 -4.288084 2.707664 0.521750 0.426660 -0.235920 0.174420 8.085028 6.627660 7.354355 48.424367 -4.402544 -13.584028 31.839634 56.135054 10.437784 1.439178 -1.891489 -0.382390 0.315010 0.104180 -0.398840 
